<?xml version="1.0" encoding="UTF-8" standalone="no"?>
<svg
   version="1.1"
   id="svg1291302"
   width="378.3472"
   height="129.63271"
   viewBox="0 0 378.3472 129.6327"
   sodipodi:docname="ByteOpusLogo.svg"
   inkscape:version="1.2.2 (732a01da63, 2022-12-09)"
   xmlns:inkscape="http://www.inkscape.org/namespaces/inkscape"
   xmlns:sodipodi="http://sodipodi.sourceforge.net/DTD/sodipodi-0.dtd"
   xmlns="http://www.w3.org/2000/svg"
   xmlns:svg="http://www.w3.org/2000/svg">
  <defs
     id="defs1291306">
    <clipPath
       clipPathUnits="userSpaceOnUse"
       id="clipPath1291328">
      <path
         d="M 0,0 H 793.00002 V 1122.6832 H 0 Z"
         clip-rule="evenodd"
         id="path1291326" />
    </clipPath>
    <clipPath
       clipPathUnits="userSpaceOnUse"
       id="clipPath1291338">
      <path
         d="M 0,0 H 793.00002 V 1122.6832 H 0 Z"
         clip-rule="evenodd"
         id="path1291336" />
    </clipPath>
    <clipPath
       clipPathUnits="userSpaceOnUse"
       id="clipPath1291344">
      <path
         d="M 6.4016147,0 H 385.69728 V 129.6327 H 6.4016147 Z"
         clip-rule="evenodd"
         id="path1291342" />
    </clipPath>
    <clipPath
       clipPathUnits="userSpaceOnUse"
       id="clipPath1291360">
      <path
         d="M 0,0 H 793.00002 V 1122.6832 H 0 Z"
         clip-rule="evenodd"
         id="path1291358" />
    </clipPath>
    <clipPath
       clipPathUnits="userSpaceOnUse"
       id="clipPath1291372">
      <path
         d="M 0,0 H 793.00002 V 1122.6832 H 0 Z"
         clip-rule="evenodd"
         id="path1291370" />
    </clipPath>
    <clipPath
       clipPathUnits="userSpaceOnUse"
       id="clipPath1291378">
      <path
         d="M 6.4016147,0 H 385.69728 V 129.6327 H 6.4016147 Z"
         clip-rule="evenodd"
         id="path1291376" />
    </clipPath>
    <clipPath
       clipPathUnits="userSpaceOnUse"
       id="clipPath1291394">
      <path
         d="M 0,0 H 793.00002 V 1122.6832 H 0 Z"
         clip-rule="evenodd"
         id="path1291392" />
    </clipPath>
    <clipPath
       clipPathUnits="userSpaceOnUse"
       id="clipPath1291406">
      <path
         d="M 0,0 H 793.00002 V 1122.6832 H 0 Z"
         clip-rule="evenodd"
         id="path1291404" />
    </clipPath>
    <clipPath
       clipPathUnits="userSpaceOnUse"
       id="clipPath1291412">
      <path
         d="M 6.4016147,0 H 385.69728 V 129.6327 H 6.4016147 Z"
         clip-rule="evenodd"
         id="path1291410" />
    </clipPath>
    <clipPath
       clipPathUnits="userSpaceOnUse"
       id="clipPath1291446">
      <path
         d="M 0,0 H 793.00002 V 1122.6832 H 0 Z"
         clip-rule="evenodd"
         id="path1291444" />
    </clipPath>
    <clipPath
       clipPathUnits="userSpaceOnUse"
       id="clipPath1291458">
      <path
         d="M 0,0 H 793.00002 V 1122.6832 H 0 Z"
         clip-rule="evenodd"
         id="path1291456" />
    </clipPath>
    <clipPath
       clipPathUnits="userSpaceOnUse"
       id="clipPath1291464">
      <path
         d="M 6.4016147,0 H 385.69728 V 129.6327 H 6.4016147 Z"
         clip-rule="evenodd"
         id="path1291462" />
    </clipPath>
    <clipPath
       clipPathUnits="userSpaceOnUse"
       id="clipPath1291480">
      <path
         d="M 0,0 H 793.00002 V 1122.6832 H 0 Z"
         clip-rule="evenodd"
         id="path1291478" />
    </clipPath>
  </defs>
  <sodipodi:namedview
     id="namedview1291304"
     pagecolor="#ffffff"
     bordercolor="#000000"
     borderopacity="0.25"
     inkscape:showpageshadow="2"
     inkscape:pageopacity="0.0"
     inkscape:pagecheckerboard="0"
     inkscape:deskcolor="#d1d1d1"
     showgrid="false"
     inkscape:zoom="1.9525215"
     inkscape:cx="257.87168"
     inkscape:cy="192.31543"
     inkscape:window-width="1920"
     inkscape:window-height="991"
     inkscape:window-x="-9"
     inkscape:window-y="-9"
     inkscape:window-maximized="1"
     inkscape:current-layer="g1291310" />
  <g
     id="g1291310"
     inkscape:groupmode="layer"
     inkscape:label="Page 1"
     transform="matrix(1.3333333,0,0,-1.3333333,-26.337866,1097.0587)">
    <g
       id="g1291312"
       transform="matrix(0.75,0,0,-0.75,14.596511,822.79406)"
       inkscape:export-filename="ByteOpusLogo.png"
       inkscape:export-xdpi="96"
       inkscape:export-ydpi="96">
      <g
         id="g1291314">
        <g
           id="g1291316" />
      </g>
      <g
         id="g1291318">
        <g
           id="g1291320" />
      </g>
      <g
         id="g1291322">
        <g
           id="g1291324"
           clip-path="url(#clipPath1291328)">
          <g
             id="g1291330" />
        </g>
      </g>
      <g
         id="g1291332">
        <g
           id="g1291334"
           clip-path="url(#clipPath1291338)">
          <g
             id="g1291340"
             clip-path="url(#clipPath1291344)">
            <g
               id="g1291346" />
            <g
               id="g1291348" />
          </g>
        </g>
      </g>
      <g
         id="g1291350">
        <g
           id="g1291352" />
      </g>
      <g
         id="g1291354">
        <g
           id="g1291356"
           clip-path="url(#clipPath1291360)">
          <g
             id="g1291362" />
          <g
             id="g1291364" />
        </g>
      </g>
      <g
         id="g1291366">
        <g
           id="g1291368"
           clip-path="url(#clipPath1291372)">
          <g
             id="g1291374"
             clip-path="url(#clipPath1291378)">
            <g
               id="g1291380" />
            <g
               id="g1291382" />
          </g>
        </g>
      </g>
      <g
         id="g1291384">
        <g
           id="g1291386" />
      </g>
      <g
         id="g1291388">
        <g
           id="g1291390"
           clip-path="url(#clipPath1291394)">
          <g
             id="g1291396" />
          <g
             id="g1291398" />
        </g>
      </g>
      <g
         id="g1291400">
        <g
           id="g1291402"
           clip-path="url(#clipPath1291406)">
          <g
             id="g1291408"
             clip-path="url(#clipPath1291412)">
            <g
               id="g1291414" />
            <g
               id="g1291416" />
            <g
               id="g1291418">
              <path
                 d="M 6.8758592,129.6327 V 106.86208 H 52.0176 c 8.988401,0 16.378861,-7.190716 16.378861,-16.378859 0,-8.988396 -7.39046,-16.378866 -16.179119,-16.378866 H 52.0176 6.8758574 V 49.536061 H 49.221207 c 7.590207,0 13.981957,-6.192008 13.981957,-13.981952 0,-7.590207 -6.39175,-13.981952 -13.981957,-13.981952 H 6.8758574 V -1.577e-6 H 48.621981 c 19.77448,0 35.753852,15.979381577 35.753852,35.554110577 0,9.188143 -3.395619,17.377571 -8.788659,23.569589 9.387881,7.190723 15.579898,18.576023 15.579898,31.359523 0,21.771909 -17.577318,39.149479 -39.149477,39.149479 H 6.8758526 Z"
                 style="fill:#2b3595;fill-opacity:1;fill-rule:nonzero;stroke:none"
                 id="path1291420" />
            </g>
            <g
               id="g1291422"
               transform="matrix(9.9871113,0,0,9.9871113,-0.11511859,-70.109527)" />
            <g
               id="g1291424"
               transform="matrix(1.0235363,0,0,1.0235363,6.8758529,0)" />
            <g
               id="g1291426"
               transform="matrix(2.1297661,0,0,2.1297661,108.72084,33.706492)" />
            <g
               id="g1291428">
              <path
                 d="m 128.2295,59.732234 c 2.98167,0.851906 6.04853,3.535411 6.04853,7.794943 0,5.452203 -3.40763,8.774637 -10.8618,8.774637 H 111.27656 V 46.485088 h 11.33035 c 6.26152,0 9.41357,3.535412 9.41357,7.539372 0,3.27984 -2.12977,4.941057 -3.79098,5.707774 z m -6.26152,-7.2838 h -3.83357 v 5.324415 h 3.83357 c 2.42794,0 3.23725,-1.107477 3.23725,-2.683506 0,-1.703813 -1.02229,-2.640909 -3.23725,-2.640909 z m 1.06489,17.890036 c 3.02426,0 4.38731,-1.27786 4.38731,-3.705792 0,-2.044576 -1.36305,-3.365031 -4.72808,-3.365031 h -4.5577 v 7.070823 z m 43.13308,-16.271414 h 6.68747 L 159.3081,84.394923 h -6.73006 l 4.08915,-8.859826 -9.58394,-21.468043 h 6.68746 l 6.21892,14.226839 z m 30.95083,16.612176 c 1.19267,0 2.04458,-0.170381 2.98168,-0.425954 v 5.579985 c -0.9371,0.425954 -2.47053,0.72412 -4.72809,0.72412 -3.70579,0 -6.81525,-1.235264 -6.81525,-8.050517 v -8.81723 h -3.10945 v -5.537393 h 3.10945 v -5.19663 h 6.73006 v 5.19663 h 4.72809 v 5.537393 h -4.72809 v 8.81723 c 0,0.97969 0.25557,2.172362 1.8316,2.172362 z m 27.79877,-16.910344 c 5.02625,0 12.05448,3.790983 10.64883,13.800884 h -15.4621 c 0.76672,2.300147 2.7687,3.492815 5.45221,3.492815 2.72609,0 3.578,-0.596336 5.11144,-1.235264 l 3.70579,3.578007 c -1.95938,1.916789 -4.60029,3.322434 -9.0728,3.322434 -5.4948,0 -12.05448,-3.790985 -12.05448,-11.415547 0,-7.75235 6.64487,-11.543333 11.67112,-11.543333 z m 0,5.750368 c -1.91679,0 -3.87617,1.107478 -4.72808,3.322436 h 9.41357 c -0.68153,-2.214956 -2.7687,-3.322434 -4.68549,-3.322434 z m 39.98104,-13.460121 c 8.43387,0 15.50469,6.261512 15.50469,15.334316 0,9.072804 -7.07082,15.334317 -15.50469,15.334317 -8.43387,0 -15.50469,-6.261513 -15.50469,-15.334315 0,-9.072802 7.07082,-15.334316 15.50469,-15.334316 z m 0,24.236739 c 4.81328,0 8.39128,-3.748389 8.39128,-8.902423 0,-5.154034 -3.578,-8.902423 -8.39128,-8.902423 -4.81328,0 -8.34868,3.748389 -8.34868,8.902423 0,5.154034 3.53542,8.902423 8.34868,8.902423 z m 42.32377,-16.526986 c 5.06884,0 10.90441,3.790983 10.90441,11.415548 0,7.922729 -5.83555,11.543332 -10.90441,11.543332 -3.40762,0 -5.40961,-1.874192 -5.70777,-2.640909 v 10.308068 h -6.73007 V 71.573734 54.152247 h 6.73007 v 2.044576 c 0.29816,-0.46855 2.30015,-2.427935 5.70777,-2.427935 z m -0.97969,17.038129 c 2.89648,0 5.36701,-1.959385 5.36701,-5.622583 0,-3.535411 -2.47054,-5.494796 -5.36701,-5.494796 -2.7687,0 -5.02625,1.916788 -5.02625,5.494796 0,3.705795 2.25755,5.622583 5.02625,5.622583 z m 33.8899,5.835559 c -4.13175,0 -8.34868,-2.768694 -8.34868,-9.796925 V 54.152245 h 6.73007 v 12.224857 c 0,3.365028 1.15008,4.429911 3.27984,4.429911 3.02427,0 4.77067,-2.939075 5.19664,-4.216936 V 54.152243 h 6.73007 V 76.30181 h -6.73007 v -3.833578 c -0.42595,1.064883 -2.68351,4.174344 -6.85785,4.174344 z m 38.70318,-15.504697 c -0.59633,-1.533432 -1.49083,-2.044575 -2.47054,-2.044575 -0.8945,0 -1.78899,0.511143 -1.78899,1.363051 0,0.809311 0.51113,1.27786 1.49082,1.618622 l 2.8113,0.979693 c 3.15206,1.150074 6.34671,2.300147 6.34671,6.73006 0,4.47251 -4.47251,7.028227 -9.07281,7.028227 -4.13175,0 -8.00793,-2.427932 -8.94501,-6.30411 l 5.28182,-1.661219 c 0.55375,1.235264 1.53344,2.64091 3.6632,2.64091 1.44825,0 2.38535,-0.937099 2.38535,-1.789004 0,-0.425955 -0.34077,-0.979691 -1.40565,-1.405645 l -2.59832,-0.937097 c -4.42992,-1.618622 -6.51708,-3.876173 -6.51708,-7.028228 0,-4.131748 3.83358,-6.55968 8.05051,-6.55968 4.30212,0 7.156,2.342744 8.43387,5.878155 z"
                 style="fill:#111111;fill-opacity:1;fill-rule:nonzero;stroke:none"
                 id="path1291430" />
            </g>
            <g
               id="g1291432"
               transform="matrix(2.1297661,0,0,2.1297661,108.72084,33.706492)" />
            <g
               id="g1291434"
               transform="matrix(1.0235363,0,0,1.0235363,6.8758529,0)" />
          </g>
        </g>
      </g>
      <g
         id="g1291436">
        <g
           id="g1291438"
           transform="matrix(1.0235363,0,0,1.0235363,6.8758529,0)" />
      </g>
      <g
         id="g1291440">
        <g
           id="g1291442"
           clip-path="url(#clipPath1291446)">
          <g
             id="g1291448"
             transform="scale(0.80020183)" />
          <g
             id="g1291450"
             transform="scale(0.80020183)" />
        </g>
      </g>
      <g
         id="g1291452">
        <g
           id="g1291454"
           clip-path="url(#clipPath1291458)">
          <g
             id="g1291460"
             clip-path="url(#clipPath1291464)">
            <g
               id="g1291466"
               transform="scale(0.80020183)" />
            <g
               id="g1291468"
               transform="matrix(1.0235363,0,0,1.0235363,6.8758529,0)" />
          </g>
        </g>
      </g>
      <g
         id="g1291470">
        <g
           id="g1291472"
           transform="matrix(1.0235363,0,0,1.0235363,6.8758529,0)" />
      </g>
      <g
         id="g1291474">
        <g
           id="g1291476"
           clip-path="url(#clipPath1291480)">
          <g
             id="g1291482"
             transform="scale(0.80020183)" />
          <g
             id="g1291484"
             transform="scale(0.80020183)" />
        </g>
      </g>
      <g
         id="g1291486">
        <g
           id="g1291488" />
      </g>
    </g>
  </g>
</svg>
